<svg width="1440" height="27" viewBox="0 0 1440 27" fill="none" xmlns="http://www.w3.org/2000/svg">
<g opacity="0.25">
<path d="M0 7.20508C34.2864 7.20508 34.2863 19.8465 68.5727 19.8465C102.859 19.8465 102.859 7.20508 137.132 7.20508C171.405 7.20508 171.418 19.8465 205.705 19.8465C239.991 19.8465 239.991 7.20508 274.277 7.20508C308.564 7.20508 308.564 19.8465 342.837 19.8465C377.11 19.8465 377.123 7.20508 411.409 7.20508C445.696 7.20508 445.696 19.8465 479.982 19.8465C514.268 19.8465 514.268 7.20508 548.555 7.20508C582.841 7.20508 582.828 19.8465 617.114 19.8465C651.4 19.8465 651.4 7.20508 685.687 7.20508C719.973 7.20508 719.973 19.8465 754.246 19.8465C788.519 19.8465 788.532 7.20508 822.819 7.20508C857.105 7.20508 857.105 19.8465 891.405 19.8465C925.705 19.8465 925.678 7.20508 959.964 7.20508C994.251 7.20508 994.264 19.8465 1028.55 19.8465C1062.84 19.8465 1062.84 7.20508 1097.11 7.20508C1131.38 7.20508 1131.4 19.8465 1165.68 19.8465C1199.97 19.8465 1199.97 7.20508 1234.27 7.20508C1268.57 7.20508 1268.55 19.8465 1302.84 19.8465C1337.13 19.8465 1337.13 7.20508 1371.41 7.20508C1405.7 7.20508 1405.71 19.8465 1440 19.8465" fill="black"/>
<path d="M0 7.20508C34.2864 7.20508 34.2863 19.8465 68.5727 19.8465C102.859 19.8465 102.859 7.20508 137.132 7.20508C171.405 7.20508 171.418 19.8465 205.705 19.8465C239.991 19.8465 239.991 7.20508 274.277 7.20508C308.564 7.20508 308.564 19.8465 342.837 19.8465C377.11 19.8465 377.123 7.20508 411.409 7.20508C445.696 7.20508 445.696 19.8465 479.982 19.8465C514.268 19.8465 514.268 7.20508 548.555 7.20508C582.841 7.20508 582.828 19.8465 617.114 19.8465C651.4 19.8465 651.4 7.20508 685.687 7.20508C719.973 7.20508 719.973 19.8465 754.246 19.8465C788.519 19.8465 788.532 7.20508 822.819 7.20508C857.105 7.20508 857.105 19.8465 891.405 19.8465C925.705 19.8465 925.678 7.20508 959.964 7.20508C994.251 7.20508 994.264 19.8465 1028.55 19.8465C1062.84 19.8465 1062.84 7.20508 1097.11 7.20508C1131.38 7.20508 1131.4 19.8465 1165.68 19.8465C1199.97 19.8465 1199.97 7.20508 1234.27 7.20508C1268.57 7.20508 1268.55 19.8465 1302.84 19.8465C1337.13 19.8465 1337.13 7.20508 1371.41 7.20508C1405.7 7.20508 1405.71 19.8465 1440 19.8465" stroke="black" stroke-width="13" stroke-miterlimit="10"/>
</g>
</svg>
